<svg width="56" height="50" viewBox="0 0 56 50" fill="none" xmlns="http://www.w3.org/2000/svg">
<path d="M37.9663 1.04668C38.6336 0.112503 39.8503 -0.246601 40.918 0.1751C41.9856 0.597059 42.6294 1.69105 42.478 2.82891L40.3564 18.7493H49.8633C50.4411 18.7493 51.0484 18.7479 51.5454 18.7933C51.952 18.8304 52.6508 18.9201 53.3252 19.3328L53.6133 19.5306L53.9258 19.8016C54.6191 20.4709 55.0322 21.3865 55.0684 22.3602C55.1037 23.3142 54.7033 24.0691 54.4678 24.472C54.2158 24.9026 53.8611 25.396 53.5254 25.866L37.0337 48.952C36.3664 49.8861 35.1497 50.2452 34.082 49.8235C33.0144 49.4016 32.3706 48.3076 32.522 47.1697L34.6436 31.2493H25.1367C24.5589 31.2493 23.9516 31.2508 23.4546 31.2054C22.9898 31.1629 22.1425 31.0514 21.3867 30.4681C20.5057 29.7878 19.9729 28.7508 19.9316 27.6385C19.8963 26.6844 20.2967 25.9296 20.5322 25.5267C20.7842 25.096 21.1389 24.6026 21.4746 24.1326L37.9663 1.04668ZM20 36.2493C21.3807 36.2493 22.5 37.3686 22.5 38.7493C22.5 40.13 21.3807 41.2493 20 41.2493H6.25C4.86929 41.2493 3.75 40.13 3.75 38.7493C3.75 37.3686 4.86929 36.2493 6.25 36.2493H20ZM26.1084 26.2493H37.5C38.2201 26.2493 38.9052 26.5599 39.3799 27.1014C39.8544 27.6434 40.073 28.3648 39.978 29.0789L38.8037 37.868L48.8916 23.7493H37.5C36.7799 23.7493 36.0948 23.4387 35.6201 22.8973C35.1456 22.3553 34.927 21.6338 35.022 20.9197L36.1938 12.1282L26.1084 26.2493ZM13.75 22.4993C15.1307 22.4993 16.25 23.6186 16.25 24.9993C16.25 26.38 15.1307 27.4993 13.75 27.4993H2.5C1.11929 27.4993 0 26.38 0 24.9993C0 23.6186 1.11929 22.4993 2.5 22.4993H13.75ZM20 8.74932C21.3807 8.74932 22.5 9.86861 22.5 11.2493C22.5 12.63 21.3807 13.7493 20 13.7493H7.5C6.11929 13.7493 5 12.63 5 11.2493C5 9.86861 6.11929 8.74932 7.5 8.74932H20Z" fill="url(#paint0_linear_20_68)"/>
<defs>
<linearGradient id="paint0_linear_20_68" x1="8.17416" y1="40.7937" x2="42.5679" y2="6.75509" gradientUnits="userSpaceOnUse">
<stop stop-color="#F7E93F"/>
<stop offset="0.5112" stop-color="#FB09B4"/>
<stop offset="1" stop-color="#9100F8"/>
</linearGradient>
</defs>
</svg>
